<?xml version="1.0" encoding="UTF-8"?>
<svg id="Bellini_x5F_ESF" xmlns="http://www.w3.org/2000/svg" viewBox="0 0 7200 5695">
  <defs>
    <style>
      .cls-1 {
        fill: #d467a7;
        opacity: .37;
      }
    </style>
  </defs>
  <polygon class="cls-1" points="3098.45 1522.3 3113.77 1804.94 3070.11 1821.79 3039.47 1893.79 2935.3 1899.45 2842.36 1989.79 2842.36 2059.23 2789.26 2091.98 2796.91 2165.19 2839.04 2165.19 2965.43 2498.89 3051.21 2480.51 3065.77 2520.34 3070.36 2575.49 3076.49 2625.28 3053.51 2686.55 3032.06 2746.3 3004.49 2737.11 2978.45 2739.4 2960.06 2763.91 2938.62 2780.77 2933.51 2752.09 2922.87 2735.45 2899.38 2737.15 2887.3 2618.68 2908.83 2609.32 2917.51 2602 2939.13 2558.09 2929.85 2499.45 2963.38 2499.45 2837.04 2166.3 2720.91 2171.91 2678.28 2158.3 2551.13 2194.3 2508.32 2189.06 2445 2228.13 2467.21 2386.77 2391.38 2493.15 2397.6 2627.28 2442.02 2667.11 2414.45 2868.3 2385.85 2881.06 2305.68 2865.23 2203.55 2844.81 2171.89 2840.72 2029.43 2851.96 1995.64 2847.5 1891.81 2881.06 1884.66 2920.89 1900.66 2971.28 1922.45 2995.79 1877.85 2997.49 1873.09 2911.7 1847.89 2883.79 1847.89 2856.89 1809.6 2699.28 1776.4 2635.96 1792.49 2560.13 1776.4 2511.11 1718.19 2504.21 1690.62 2525.66 1630.11 2512.64 1584.15 2540.21 1584.15 2560.89 1545.09 2575.45 1542.02 2597.66 1480.74 2613.74 1472.32 2642.85 1457.77 2647.45 1411.81 2626.77 1215.47 2677.83 1184.32 2530.77 1135.3 2443.96 1068.91 2287.19 1015.98 2290.85 993.85 2222.43 969.68 2220.04 991.72 2125.15 1030.53 2037.32 1087.72 1995.45 1085.68 1986 1072.15 1982.94 1073.94 1968.13 1049.94 1957.15 1059.89 1946.94 1062.45 1915.28 1055.47 1905.74 1060.32 1888.13 1077.43 1884.81 1089.17 1890.43 1112.4 1885.32 1129 1871.79 1161.17 1866.17 1332.32 1864.21 1402.45 1874.51 1526.28 1900.55 1619.21 1834.94 1758.36 1858.43 1910.7 1819.62 1982.45 1836.98 2081.6 1774.09 2259.72 1761.83 2352.32 1709.4 2464.4 1532.81 2529.34 1523.7 2543.64 1504.55 3098.45 1522.3"/>
</svg>