<?xml version="1.0" encoding="UTF-8"?>
<svg id="Bellini_x5F_SMPA" xmlns="http://www.w3.org/2000/svg" viewBox="0 0 7200 5695">
  <defs>
    <style>
      .cls-1 {
        fill: #d467a7;
        opacity: .49;
      }
    </style>
  </defs>
  <polygon class="cls-1" points="2286.23 2886.62 2228.53 2909.09 2186.15 2971.38 2158.57 2910.11 2108.53 2890.19 2036.02 2922.87 1991.6 2968.32 1999.26 3006.62 1875.43 3005.09 1870.32 2912.66 1845.81 2886.62 1843.77 2857 1807.51 2706.11 1769.98 2639.21 1786.83 2562.62 1766.91 2518.19 1717.89 2513.6 1690.32 2535.04 1632.11 2519.72 1593.04 2541.17 1586.91 2567.98 1555.51 2575.64 1550.15 2606.28 1485.81 2619.3 1475.85 2648.4 1461.3 2653 1415.34 2637.68 1380.11 2642.28 1308.96 2661.85 1231.43 2684.83 1212.02 2685.85 1182.66 2535.72 1129.04 2439.98 1066.23 2291.38 1014.4 2293.85 991.26 2224.74 958.91 2222.02 949.72 2199.21 901.72 2200.91 896.96 2155.3 862.57 2153.26 861.21 2126.36 839.77 2120.23 837.38 2102.87 769.72 2098.62 761.04 2113.94 753.38 2102.19 654.83 2107.3 622.15 2095.55 615 2120.06 589.98 2117.51 578.74 2091.98 522.06 2103.21 516.96 2123.13 480.19 2127.21 474.57 2149.17 459.26 2096.57 337.72 2098.96 324.11 2110.19 266.57 2116.32 264.19 2156.15 232.19 2169.09 233.55 2267.13 202.91 2273.26 188.87 2345.68 176.11 2332.91 103.09 2342.11 88.79 2433 74.49 2493.26 23.43 2595.38 0 2688.32 0 4222.09 94.38 4089.66 147.83 4062.43 130.89 3883.87 220.43 3746.68 332.09 3720.81 456.68 3770.94 498.04 3876.13 498.04 3983.87 521.02 4032.89 508.26 4086 648.17 4059.96 610.38 3955.79 661.96 3855.19 641.53 3811.28 770.72 3777.23 826.38 3803.02 877.96 3757.57 1020.17 3768.13 980.6 3715.53 1005.62 3667.79 1112.85 3723.02 1092.94 3753.15 1112.85 3862.94 1180.26 3891.53 1321.19 3809.83 1386.55 3853.74 1429.11 3968.89 1430.81 4061.83 1445.11 4062.17 1438.3 3963.11 1452.26 3877.66 1466.21 3851.45 1512.68 3815.87 1576.17 3801.23 1642.13 3788.21 1760.51 3791.7 1805.28 3817.02 1851.91 3812.89 1911.49 3814.94 1971.74 3838.09 1996.17 3885.91 2007.4 3922.94 2045.19 3952.55 2058.98 3953.06 2099.83 3858.09 2158.55 3836.89 2255.57 3862.43 2318.89 3826.17 2416 3839.36 2490.89 3917.66 2490.89 4003.79 2458.55 4045.66 2458.51 4106.17 2586.68 4230.77 2640.81 4213.91 2632.64 4048.47 2623.96 3998.94 2672.11 3918.11 2638.4 3782.96 2583.43 3728.91 2515.26 3542.79 2485.38 3495.3 2408.79 3465.43 2412.62 3443.98 2443.26 3443.98 2463.43 3388.32 2468.02 3272.4 2498.15 3201.94 2411.6 3173.09 2340.62 3105.17 2342.15 3081.17 2390.15 3018.36 2402.15 3020.96 2482.57 3055.43 2563 3065.38 2631.94 3036.28 2704.7 3042.91 2786.4 2985.72 2786.4 2952.02 2892.62 2934.66 2923.26 2958.15 2883.43 2617.04 2913.04 2601.72 2935.51 2557.81 2925.3 2496.53 2887 2398.49 2841.04 2341.81 2854.83 2298.91 2836.45 2176.36 2761.38 2170.23 2733.81 2259.09 2715.43 2168.7 2628.11 2174.83 2551.51 2200.87 2507.09 2194.74 2447.34 2229.98 2474.91 2386.23 2393.72 2495 2402.91 2616.02 2445.81 2666.57 2401.13 3017.85 2389.51 3014.21 2353.83 2935.45 2326 2889.23 2286.23 2886.62"/>
</svg>