<?xml version="1.0" encoding="UTF-8"?>
<svg id="Botticelli_x5F_AotM" xmlns="http://www.w3.org/2000/svg" viewBox="0 0 7200 5695">
  <defs>
    <style>
      .cls-1 {
        fill: #d467a7;
        opacity: .45;
      }
    </style>
  </defs>
  <polygon class="cls-1" points="1850.64 4124.94 1927.74 4096.34 1996.17 4090.21 1993.62 4075.4 2016.09 4070.3 2029.87 4020.26 2013.53 3992.17 2021.19 3967.15 2008.43 3948.26 1991.57 3884.43 1967.06 3841.02 1911.4 3820.6 1850.64 3817.02 1837.36 3822.13 1799.57 3822.64 1781.19 3840 1779.15 3848.17 1758.21 3868.09 1752.09 3885.96 1735.74 3891.06 1732.68 3906.38 1740.34 3929.36 1742.38 3949.28 1718.38 3957.45 1722.47 3983.49 1737.28 3992.17 1743.92 4007.49 1742.38 4017.7 1754.13 4034.04 1776.09 4030.47 1785.28 4037.11 1794.98 4063.66 1807.74 4081.02 1820.51 4108.09 1844.51 4114.21 1850.64 4124.94"/>
</svg>