<?xml version="1.0" encoding="UTF-8"?>
<svg id="Botticelli_x5F_PD" xmlns="http://www.w3.org/2000/svg" viewBox="0 0 7200 5695">
  <defs>
    <style>
      .cls-1 {
        fill: #d467a7;
        opacity: .37;
      }
    </style>
  </defs>
  <polygon class="cls-1" points="1448 4062.38 1443.4 3968.94 1452.6 3896.43 1468.43 3853.53 1514.38 3819.32 1576.17 3806.55 1624.17 3806.55 1641.02 3793.28 1641.02 3807.57 1655.32 3805.53 1678.81 3793.28 1678.81 3813.19 1710.98 3799.4 1757.45 3796.85 1727.83 3831.57 1754.89 3861.7 1718.38 3861.19 1699.74 3848.94 1691.57 3852 1712.51 3898.47 1718.38 3908.68 1718.38 3927.83 1731.4 3946.47 1715.45 3957.7 1721.19 3984.51 1736 3992.55 1742.26 4006.72 1734.21 4009.53 1724.64 4004.3 1727.45 4021.91 1724.51 4027.53 1728.43 4032.72 1722.64 4048.38 1730.3 4065.57 1728.43 4081.23 1708.85 4091.11 1672.09 4084.13 1660.85 4091.11 1658.98 4113.57 1631.4 4124.94 1448 4062.38"/>
</svg>