<?xml version="1.0" encoding="UTF-8"?>
<svg id="Botticelli_x5F_Primavera" xmlns="http://www.w3.org/2000/svg" viewBox="0 0 7200 5695">
  <defs>
    <style>
      .cls-1 {
        fill: #d467a7;
        opacity: .44;
      }
    </style>
  </defs>
  <polygon class="cls-1" points="0 494.38 8.95 493.53 17.98 502.55 44.19 517.7 90.15 552.25 140.87 585.1 149.93 595.15 149.93 608.08 141.51 619.4 136.23 619.4 136.15 627.91 129.59 636.85 145.76 648.93 146.1 639.4 151.12 630.89 156.66 624.51 168.4 623.23 179.89 629.27 191.29 649.36 192.23 634 197.34 632.98 197.34 615.74 208.7 605.66 216.49 600.3 222.23 601.32 231.93 610.38 237.68 619.83 231.04 630.17 226.83 634.76 231.42 646.38 243.17 644.85 246.49 651.1 256.7 651.87 265.85 652.72 274.87 632.34 274.02 621.78 282.19 608.68 289 607.49 297.17 598.64 297.17 582.3 313.85 573.95 327.64 579.23 329.34 589.44 329.34 595.57 321.68 604.93 322.36 611.23 329.34 615.83 331.55 631.66 341.08 642.55 360.49 642.89 361.85 630.13 367.64 625.19 371.21 625.87 369.34 637.95 368.15 645.95 356.32 652.72 355.93 662.04 374.19 665.74 387.59 655.4 394.49 657.06 396.02 660.13 400.74 659.23 401.51 654.64 395.38 648.89 398.44 643.66 394.74 633.06 401.51 621.95 416.57 621.83 426.66 626.93 432.78 635.61 434.44 643.15 448.23 633.44 450.66 622.21 464.1 599.87 477 591.95 483.76 587.49 490.02 595.15 490.91 612.76 490.02 631.15 489.38 637.27 499.08 638.81 504.19 646.47 508.02 645.95 502.4 637.15 508.02 622.47 522.19 620.17 533.17 626.68 534.7 634.08 532.02 640.21 534.7 652.72 540.36 662.04 554.95 644.34 556.61 624.55 565.55 613.95 566.83 607.32 570.91 606.93 574.23 612.17 580.74 614.59 616.95 583.53 616.95 560.34 620.7 557.95 622.74 550.98 622.74 545.27 620.19 540.76 621.21 533.95 625.81 530.55 630.7 512.83 632.49 513.42 630.36 530.61 634.53 534.19 635.55 542.36 635.55 546.95 631.04 548.23 628.32 553.51 627.81 561 628.57 566.78 627.38 574.02 617.93 584.06 580.51 614.92 573.92 624.86 555.34 644.33 539.88 662.88 541.22 675.79 538.92 694.69 532.03 700.81 534.07 711.54 534.07 723.79 523.35 732.47 518.75 744.22 511.35 748.56 505.48 758.26 492.97 764.39 474.33 776.64 463.35 778.18 457.99 795.79 453.9 816.73 438.58 834.09 427.86 846.6 421.82 856.47 403.18 860.05 388.88 870.77 384.54 866.18 396.03 856.47 388.37 854.18 380.71 851.88 373.56 854.18 366.67 861.58 358.24 859.28 369.99 843.71 369.48 838.09 358.5 838.35 345.48 836.3 346.5 828.9 342.41 825.33 357.48 822.77 353.9 815.88 352.63 804.39 355.94 790.86 368.97 787.03 347.77 777.33 331.18 782.94 328.11 802.35 321.22 804.13 309.22 801.84 326.84 816.39 300.29 813.07 299.01 803.88 286.75 802.6 279.6 813.84 267.09 815.11 267.6 809.75 239.52 809.5 238.75 813.84 230.33 818.94 220.88 812.81 218.07 829.67 215.09 836.22 220.2 868.39 229.9 880.39 220.97 883.45 205.14 866.35 207.43 858.43 202.84 846.43 193.39 850.01 196.71 857.15 189.82 860.22 173.73 841.33 157.14 835.71 149.99 824.98 141.82 822.43 136.71 811.45 149.9 804.73 156.71 805.92 162.16 808.81 163.86 796.05 167.43 783.28 181.73 772.73 164.2 775.11 149.39 780.22 148.71 773.92 154.84 763.37 173.73 762.69 156.71 743.62 151.77 728.64 152.29 720.13 140.71 713.33 136.97 735.62 128.46 736.3 125.9 753.84 123.01 759.11 128.46 768.13 122.16 780.39 118.75 780.39 116.71 799.96 91.18 828.73 85.9 839.88 89.99 848.56 94.75 854.69 97.65 862.18 93.9 865.24 88.8 863.37 81.48 852.64 73.82 848.56 69.9 847.54 77.73 834.43 82.84 811.62 91.52 799.03 96.97 792.39 83.99 755.5 74.8 769.41 62.54 785.11 55.77 789.58 48.24 789.33 29.9 802.39 18.8 814.13 12.41 824.73 11.39 836.6 0 837.37 0 494.38 0 494.38"/>
</svg>