<?xml version="1.0" encoding="UTF-8"?>
<svg id="Botticelli_x5F_BoV" xmlns="http://www.w3.org/2000/svg" viewBox="0 0 7200 5695">
  <defs>
    <style>
      .cls-1 {
        fill: #d467a7;
        opacity: .43;
      }
    </style>
  </defs>
  <polygon class="cls-1" points="6311.25 1191.91 6351.59 1222.55 6417.98 1233.27 6508.87 1233.27 6534.91 1222.04 6558.4 1222.04 6635 1191.91 6631.93 1161.78 6609.47 1138.3 6577.81 1114.81 6555.34 1106.64 6522.15 1102.04 6537.47 1071.4 6545.64 1040.25 6558.91 1029.53 6568.1 1005.02 6563.51 970.81 6555.85 948.85 6555.85 930.47 6560.95 912.08 6551.76 894.72 6543.08 886.55 6527.76 881.44 6516.02 862.55 6508.87 841.61 6502.74 827.83 6484.36 827.83 6473.12 842.13 6477.21 853.36 6479.25 867.15 6479.76 878.38 6473.12 879.91 6473.12 893.19 6463.42 897.78 6454.23 918.72 6451.17 975.91 6454.23 981.02 6466.49 970.3 6473.12 975.4 6473.12 1002.47 6477.21 1067.32 6481.29 1087.23 6481.29 1098.98 6473.12 1097.44 6454.74 1098.47 6412.36 1103.57 6386.83 1104.08 6367.93 1113.27 6339.85 1126.55 6325.04 1138.3 6318.4 1152.08 6311.25 1191.91"/>
</svg>