<?xml version="1.0" encoding="UTF-8"?>
<svg id="Eyck_x5F_GA2" xmlns="http://www.w3.org/2000/svg" viewBox="0 0 7200 5695">
  <defs>
    <style>
      .cls-1 {
        fill: #d467a7;
      }
    </style>
  </defs>
  <polygon class="cls-1" points="5323.21 0 5484.06 211.28 5403.64 327.7 5559.13 327.7 5583.64 442.6 5375.3 508.47 5307.89 488.55 5211.38 444.13 5258.87 536.04 5147.04 569.74 5303.3 608.04 5352.32 621.83 5517.77 621.83 5421.26 560.55 5490.19 480.89 5583.64 460.98 5583.64 643.28 5534.62 704.55 5337 704.55 5219.55 824.55 5147.04 1012.47 4900.92 1088.04 4833.51 1153.4 4723.21 1153.4 4567.98 1333.15 4320.83 1445.49 3877.6 1371.96 3479.3 1561.91 3154.53 1384.21 3083.04 1447.53 3099.38 1514.94 2545.85 1502.68 2533.6 846 2006.62 815.36 1990.28 592.21 1990.28 548.38 2085.94 530.77 2141.85 475.62 2220.74 452.64 2288.15 448.81 2208.49 406.68 2155.64 427.36 2125 418.17 2119.64 385.23 2012.4 254.26 1997.85 259.62 2029.26 409.74 2003.98 422.77 1956.49 424.3 1780.32 340.04 1828.57 387.53 1983.3 457.23 2009.34 467.19 1984.83 500.89 1935.04 536.89 1941.34 551.62 1983.04 551.45 1981.17 593.23 1939.3 554.43 1753.26 352.72 1658.28 411.11 1462.7 422.85 1414.45 395.19 1566.11 230.77 1581.94 221.57 1684.57 221.06 1768.32 231.28 1747.38 213.4 1729.51 177.15 1652.92 168.98 1620.74 156.21 1589.09 119.45 1546.7 106.17 1495.3 52.47 1457.17 42.26 1476.57 75.28 1456.15 72.89 1411.55 47.36 1372.74 0 5323.21 0"/>
</svg>