<?xml version="1.0" encoding="UTF-8"?>
<svg id="Fabriano_x5F_AotM" xmlns="http://www.w3.org/2000/svg" viewBox="0 0 7200 5695">
  <defs>
    <style>
      .cls-1 {
        fill: #d467a7;
        opacity: .41;
      }
    </style>
  </defs>
  <polygon class="cls-1" points="7200 2972.81 7189.36 3001.15 7144.94 3012.64 7129.62 2992.72 7065.28 2992.72 7056.85 3012.64 6958.81 3029.49 6958.81 3062.43 6906.72 3062.43 6892.17 3090 6924.34 3121.4 6928.17 3178.85 6896.77 3178.85 6873.02 3137.49 6846.21 3117.57 6803.32 3173.49 6694.55 3103.79 6532.17 3266.17 6447.66 3479.87 6339.4 3608.04 6072.34 3493.15 5819.57 3418.09 5553.02 3447.19 5482.55 3379.28 5412.09 3368.55 5265.02 3305.74 5157.79 3357.83 5076.6 3351.7 5015.32 3322.6 4958.64 3259.79 4967.83 3221.49 4851.4 3169.4 4796.26 3175.53 4750.3 3164.81 4607.83 3200.04 4505.19 3272.04 4430.13 3363.96 4378.04 3439.02 4257.02 3466.6 4177.36 3428.3 4090.04 3463.53 4049.45 3453.57 3946.81 3445.15 3890.89 3479.62 3874.04 3418.34 3874.04 3385.4 3831.91 3340.21 3776.77 3358.6 3741.53 3416.04 3711.66 3411.45 3717.02 3354 3711.66 3303.45 3653.45 3259.79 3594.47 3265.91 3552.34 3314.94 3521.7 3363.96 3508.68 3379.28 3469.62 3357.06 3378.47 3379.28 3302.64 3444.38 3353.19 3501.83 3350.89 3546.26 3399.15 3659.62 3374.64 3686.17 3379.23 3754.34 3351.66 3784.98 3368.51 3896.81 3385.62 4052.3 3315.15 4149.57 3374.89 4195.53 3411.32 4275.96 3400.77 4356.64 3504.6 4430.94 3630.21 4692.89 3656.26 5013.06 3656.26 5160.13 3695.32 5695 7200 5695 7200 2972.81"/>
</svg>