<?xml version="1.0" encoding="UTF-8"?>
<svg id="Fra_x5F_Angelico_x5F_NMT" xmlns="http://www.w3.org/2000/svg" viewBox="0 0 7200 5695">
  <defs>
    <style>
      .cls-1 {
        fill: #d467a7;
        opacity: .42;
      }
    </style>
  </defs>
  <polygon class="cls-1" points="5756.81 3419.23 5763.13 3299.74 5780.49 3279.32 5812.66 3280.85 5797.34 3222.64 5769.26 3201.7 5767.47 3182.3 5755.72 3170.04 5754.79 3101.7 5773.68 3095.91 5801.26 3097.96 5800.4 3034.3 5784.57 3018.98 5790.45 2950.21 5781.43 2929.45 5787.3 2860 5817.17 2797.45 5807.98 2782.13 5789.09 2782.13 5789.43 2740.94 5813.3 2683.36 5825.13 2578.34 5823.43 2535.45 5787 2535.45 5764.87 2526.6 5762.15 2507.53 5752.96 2505.83 5752.96 2487.79 5744.79 2477.57 5759.43 2465.66 5756.81 2453.4 5768.96 2453.4 5765.55 2430.51 5742.74 2419.96 5745.13 2403.62 5721.3 2391.7 5707.68 2391.7 5705.3 2378.09 5675.34 2378.09 5662.74 2370.6 5655.6 2364.13 5637.89 2367.19 5633.47 2372.3 5625.3 2368.89 5615.43 2380.81 5607.94 2382.85 5603.51 2367.19 5598.4 2358.68 5585.13 2358.68 5573.89 2366.85 5563 2363.45 5563 2350.17 5551.43 2337.57 5536.79 2345.06 5536.79 2377.4 5533.04 2382.85 5523.85 2380.81 5523.85 2391.02 5515 2388.3 5505.13 2377.4 5494.23 2390.68 5480.02 2379.36 5450.91 2394.68 5465.47 2354.09 5455.51 2326.51 5439.43 2343.36 5434.83 2288.98 5425.64 2288.98 5425.64 2260.64 5394.23 2252.98 5385.81 2277.49 5375.09 2281.32 5375.09 2305.83 5364.36 2301.23 5368.19 2540.21 5315.34 2547.11 5299.81 2558.13 5273.38 2546.64 5262.4 2552.38 5246.45 2533.23 5225.77 2526.47 5241.26 2506.55 5240.49 2488.17 5247.89 2480.51 5255.3 2438.38 5249.43 2435.32 5258.87 2377.11 5239.3 2346.55 5237.26 2275.06 5225.77 2270.47 5222.96 2203.06 5201 2180.6 5160.15 2195.91 5158.11 2230.64 5146.36 2238.3 5137.17 2298.04 5121.85 2310.81 5101.94 2288.85 5053.94 2270.98 5025.34 2263.32 4968.15 2289.36 4955.38 2287.83 4893.6 2336.34 4864.49 2365.45 4811.38 2310.3 4782.28 2228.6 4717.77 2157.62 4721.77 3167.57 4751.38 3161.79 4796.66 3173.36 4849.77 3166.55 4969.94 3220.68 4964.49 3257.62 5010.45 3309.7 5062.53 3338.81 5140.15 3353.11 5186.62 3336.77 5265.26 3300 5324.49 3327.57 5315.3 2549.11 5370.45 2542.13 5392.74 3356.26 5482.28 3377.02 5553.77 3444.26 5756.81 3419.23"/>
</svg>