<?xml version="1.0" encoding="UTF-8"?>
<svg id="Ghirlandaio_x5F_NAS" xmlns="http://www.w3.org/2000/svg" viewBox="0 0 7200 5695">
  <defs>
    <style>
      .cls-1 {
        fill: #d467a7;
      }
    </style>
  </defs>
  <polygon class="cls-1" points="1333.94 1862.68 1162.02 1862.68 1080.83 1732.47 850.02 1607.36 476.23 1607.36 562.02 1160.04 529.34 1115.11 374.11 986.43 482.36 782.17 525.26 776.04 568.15 649.4 637.6 573.83 764.23 600.38 856.15 553.4 1064.49 553.4 1154.36 378.77 1257 392.55 1322.87 352.72 1462.28 426.26 1661.43 415.53 1757.94 366.51 1980.06 602.43 1996.92 830.68 2523.89 863.36 2523.89 1522.09 2461.09 1530.26 2346.19 1709.49 2257.34 1758.51 2079.64 1772.3 1986.19 1833.57 1909.6 1816.72 1757.94 1856.55 1618.53 1832.04 1526.62 1899.45 1478.24 1888.17 1403.09 1870.66 1409.68 1824.13 1446.96 1827.02 1480.92 1802.34 1459.47 1775.66 1450.28 1681.45 1482.62 1601.57 1480.06 1524.21 1464.15 1512.38 1472.11 1497.87 1466.57 1476.34 1447.23 1464.83 1422.28 1473.83 1392.09 1469.81 1369.74 1489.72 1341.66 1514.49 1329.23 1544.79 1334.51 1597.04 1328.38 1623.68 1325.7 1691.26 1301.55 1714 1278.79 1804.17 1302.11 1831.57 1326.62 1822.89 1309.26 1789.79 1324.53 1744.64 1352.62 1711.7 1364.55 1678.31 1382.23 1720.13 1376.06 1759.02 1389.68 1799.02 1389.26 1828.13 1406.08 1823.77 1399.95 1872.79 1333.94 1862.68"/>
</svg>