<?xml version="1.0" encoding="UTF-8"?>
<svg id="Giotto_x5F_KJ" xmlns="http://www.w3.org/2000/svg" viewBox="0 0 7200 5695">
  <defs>
    <style>
      .cls-1 {
        fill: #d467a7;
        opacity: .39;
      }
    </style>
  </defs>
  <polygon class="cls-1" points="0 4230.34 96.17 4095.53 153.36 4064.89 137.02 3887.19 222.81 3754.43 331.06 3727.87 455.66 3778.94 494.47 3879.02 494.47 3985.23 516.94 4034.26 502.64 4091.45 653.79 4064.89 617.02 3959.11 668.09 3854.51 647.66 3817.02 770.21 3783.02 827.4 3807.53 878.47 3762.6 964.26 3768.72 1027.57 3772.81 986.72 3717.66 1005.11 3672.72 1107.23 3723.79 1088.85 3754.43 1107.23 3870.85 1180.77 3897.4 1321.7 3817.02 1385.02 3860.64 1425.87 3970.98 1425.87 4066.94 1460.09 4071.02 1626.3 4131.7 1788.43 4159.87 1925.53 4102.43 2002.72 4091.53 1998.38 4078.51 2023.66 4070.34 2036.43 4023.62 2016.77 3933.23 2045.11 3957.74 2061.7 3958.26 2100.34 3862.85 2154.72 3843.7 2258.13 3868.21 2318.13 3830.94 2415.15 3844.21 2487.66 3919.79 2487.66 4003.53 2456 4043.36 2452.94 4109.74 2585.7 4238.43 2639.83 4220.04 2717.45 4238.43 2754.21 4209.83 2745.02 4123.02 2673.53 4134.26 2629.62 4020.89 2672.51 3981.06 2737.87 3903.45 2820.6 3901.4 2853.28 3924.89 2948.26 3899.36 3043.23 3973.91 3065.7 3919.79 3179.06 3875.87 3260.77 3935.11 3289.87 4146.51 3375.66 4203.7 3406.3 4277.23 3396.09 4360.98 3500.26 4436.55 3624.85 4691.87 3651.4 5010.51 3651.4 5196.38 3688.17 5695 0 5695 0 4230.34"/>
</svg>