<?xml version="1.0" encoding="UTF-8"?>
<svg id="Lippi_x5F_VaC" xmlns="http://www.w3.org/2000/svg" viewBox="0 0 7200 5695">
  <defs>
    <style>
      .cls-1 {
        fill: #d467a7;
        opacity: .36;
      }
    </style>
  </defs>
  <polygon class="cls-1" points="7200 2966.17 7187.62 2998.34 7145.23 3009.57 7129.66 2989.91 7066.09 2987.87 7054.85 3009.57 6956.55 3026.94 6956.55 3058.34 6902.94 3058.34 6888.64 3089.23 6920.13 3121.57 6925.57 3175.36 6897.66 3175.36 6877.57 3136.55 6844.55 3112.72 6802 3167.87 6690.43 3092.55 6526.51 3262.6 6440.72 3479.36 6336.55 3599.62 6072.55 3487.96 5816.64 3412.81 5761.91 3419.79 5766 3304.38 5783.87 3282.89 5817.06 3282.89 5799.19 3220.64 5772.13 3201.23 5769.57 3178.77 5759.36 3171.62 5756.81 3104.21 5774.17 3099.11 5803.28 3100.13 5801.83 3033.32 5786.51 3019.53 5791.62 2950.09 5783.96 2931.19 5789.57 2862.26 5819.19 2797.91 5809.15 2780.64 5791.11 2780.64 5792.47 2742.85 5814.6 2685.66 5826.68 2581.66 5825.15 2528.04 5807.28 2498.94 5945.23 2387.79 5950.6 2285.4 5968.98 2247.11 5996.04 2209.83 5998.6 2185.83 6016.47 2160.81 6066.51 2139.87 6126.77 2155.19 6139.02 2180.21 6129.32 2222.6 6142.6 2269.06 6185.49 2311.96 6230.51 2380.13 6249.91 2375.02 6250.26 2222.85 6282.6 2210.26 6454.94 2234.6 6558.43 2233.91 6658 2206.77 6719.02 2219.53 6806.6 2215.53 6950.94 2263.19 7013.91 2316.98 7019.62 2360.89 6993.83 2390.77 6948.89 2415.28 7011.7 2475.02 7098.51 2501.57 7151.62 2566.94 7200 2701.23 7200 2966.17 7200 2966.17"/>
</svg>