<?xml version="1.0" encoding="UTF-8"?>
<svg id="Masaccio_x5F_EAE" xmlns="http://www.w3.org/2000/svg" viewBox="0 0 7200 5695">
  <defs>
    <style>
      .cls-1 {
        fill: #d467a7;
      }
    </style>
  </defs>
  <polygon class="cls-1" points="1392.34 1821.28 1447.32 1823.32 1476.26 1801.87 1456.68 1776.17 1446.47 1679.06 1478.13 1600.77 1476.43 1526.21 1460.09 1516.68 1460.77 1508.51 1465.19 1505.79 1466.85 1487.66 1458.43 1473.74 1443.62 1469.53 1429.83 1474.77 1425.36 1482.81 1409.79 1473.87 1390.89 1473.74 1373.28 1491.62 1374.68 1497.36 1350.55 1510.85 1340.6 1524.38 1332.94 1547.23 1334.98 1576.21 1339.06 1596.3 1331.4 1627.45 1332.68 1644.55 1329.62 1690.26 1308.43 1714 1298.98 1736.98 1287.06 1795.19 1291.66 1815.79 1301.36 1824.13 1322.3 1821.06 1313.11 1807.28 1305.96 1789.23 1311.4 1759.45 1337.11 1718.09 1348.17 1713.15 1364.81 1671.83 1378.6 1698.13 1385.74 1717.4 1381.66 1755.96 1387.79 1775.62 1389.96 1790.68 1393.79 1806.26 1392.34 1821.28"/>
</svg>