<?xml version="1.0" encoding="UTF-8"?>
<svg id="Uccello_x5F_SGD" xmlns="http://www.w3.org/2000/svg" viewBox="0 0 7200 5695">
  <defs>
    <style>
      .cls-1 {
        fill: #d467a7;
        opacity: .38;
      }
    </style>
  </defs>
  <polygon class="cls-1" points="4717.77 3170.76 4715.66 2176.81 4696 2166.64 4582.98 2171.74 4520.08 2141.53 4445.53 2153.02 4398.55 2145.1 4302.55 2155.06 4208.93 2155.74 4175.23 2147.23 4151.4 2166.3 4124.17 2166.98 4118.72 2192.51 4102.72 2206.81 4111.23 2236.76 4097.27 2258.55 4097.27 2276.93 4077.53 2300.42 4042.47 2320.85 4020.17 2383.74 3977.95 2429.36 3952.08 2452.51 3926.21 2457.95 3921.1 2481.44 3838.04 2530.13 3816.93 2533.53 3809.1 2602.55 3792.76 2658.72 3775.91 2709.78 3767.74 2730.72 3757.02 2739.4 3623.23 2654.38 3623.23 2678.21 3611.4 2688.42 3567.49 2683.83 3498.38 2645.02 3689.27 2794.47 3666.04 2811.06 3604.08 2782.47 3582.64 2798.64 3543.83 2799.83 3498.38 2787.57 3473.02 2795.23 3436.25 2792.85 3344.85 2732 3316.59 2678.89 3316.59 2662.55 3310.12 2656.15 3310.12 2647.91 3321.02 2647.23 3329.53 2640.08 3329.53 2604.34 3312.34 2583.1 3299.7 2584.51 3270.21 2599.57 3238.04 2564.21 3225.91 2575.4 3201.4 2581.19 3191.02 2594.47 3191.02 2611.15 3174.85 2632.42 3137.4 2634.13 3118.51 2680.76 3096.72 2724.68 3090.59 2775.06 3093.32 2810.81 3047.02 2815.91 3039.19 2777.78 3027.27 2748.17 3003.78 2742.38 2982.08 2742.38 2967.02 2760.51 2957.44 2781.7 2947.23 2801.49 2941.36 2805.57 2932.93 2794.59 2932.93 2762.68 2927.44 2744.93 2919.4 2738.81 2904.25 2738.19 2905.08 2742.15 2911.72 2746.49 2918.29 2756.64 2920.55 2768.87 2918.68 2802.74 2920.89 2821.47 2935.7 2834.23 2966.34 2849.38 2979.95 2846.02 2999.74 2812.7 3007.91 2806.83 3011.23 2830.19 2994.12 2842.57 2983.4 2854.19 3023.66 2889.13 3038.72 2888.36 3049.95 2877.13 3047.34 2818.27 3093.61 2814.32 3096.02 2903.74 3173.89 2967.57 3200.19 3020.93 3235.93 3056.68 3226.74 3190.98 3238.23 3243.06 3241.29 3308.93 3261.21 3391.66 3296.44 3436.08 3377.29 3375.23 3469.81 3352.68 3505.81 3371.57 3548.7 3311.57 3594.66 3259.49 3654.4 3255.4 3713.89 3300.25 3720.53 3352.59 3713.64 3407.49 3740.19 3413.87 3775.68 3354.89 3832.1 3336.51 3876.78 3384.51 3875.42 3416.76 3891.76 3475.49 3946.23 3442.64 4051 3448.76 4088.53 3459.74 4177.64 3425.02 4257.55 3463.32 4376.53 3436.51 4425.98 3364.68 4503.08 3267.91 4606.91 3195.91 4717.77 3170.76"/>
</svg>